# xmcd
#
# Track frame offsets:
#	150
#	16386
#	31673
#	44951
#	55546
#	65773
#	80649
#	92556
#	107521
#	120808
#	133572
#	148794
#	167757
#	181888
#	193185
#	208227
#	220244
#	233075
#	248435
#	259122
#	269983
#	281123
#	290674
#	306253
#	322360
#
# Disc length: 4466 seconds
#
# Revision: 1
# Processed by: cddbd v1.5.2PL0 Copyright (c) Steve Scherf et al.
# Submitted via: audiograbber 1.83.01
#
DISCID=84117019
DTITLE=Various Artist - Legends of Country Music Disc 2
DYEAR=2005
DGENRE=Country
TTITLE0=Lucille - Kenny Rogers
TTITLE1=Think about love - Dolly Parton
TTITLE2=I don't hurt anymore - Hank Snow
TTITLE3=Once a day - Conny Smith
TTITLE4=Help me make it through the night - Bobby Bare
TTITLE5=Me and Bobby McGee - Roger Miller
TTITLE6=Linda on my mind - Conway Twitty
TTITLE7=The morning after let me down - Ray Griff
TTITLE8=Woman of the world - Loretta Lynn
TTITLE9=Emptiest arms in the world - Merle Haggard
TTITLE10=Birmingham Jail - Gene Martin
TTITLE11=The Banks of the Ohio - Rebecca Holden and Rolf Reggenbass
TTITLE12=Annie's song - John Denver
TTITLE13=Hello Darling - Conway Twitty
TTITLE14=Love in the first degree - Alabama
TTITLE15=The Bargain Store - Dolly Parton
TTITLE16=I can't stop loving you - Don Gibson
TTITLE17=For the good times - Kenny Rogers
TTITLE18=Blue eyes crying in the rain - Willie Nelson
TTITLE19=Let me go lover - Hank Snow
TTITLE20=Husbands and wives - Roger Miller
TTITLE21=Tennessee Waltz - Bobby Sykes
TTITLE22=Touch the hand - Conway Twitty
TTITLE23=Everything is beautiful - Ray Stevens
TTITLE24=Come sundown - Bobby Bare
EXTD=
EXTT0=
EXTT1=
EXTT2=
EXTT3=
EXTT4=
EXTT5=
EXTT6=
EXTT7=
EXTT8=
EXTT9=
EXTT10=
EXTT11=
EXTT12=
EXTT13=
EXTT14=
EXTT15=
EXTT16=
EXTT17=
EXTT18=
EXTT19=
EXTT20=
EXTT21=
EXTT22=
EXTT23=
EXTT24=
PLAYORDER=
